<svg width="150" height="150" viewBox="0 0 150 150" fill="none" xmlns="http://www.w3.org/2000/svg">
<path d="M71.8566 69.6217C71.8566 69.6217 56.4693 69.6217 53.5535 69.6217C48.0487 69.6217 48.9712 65.2188 48.9712 65.2188H71.8573L71.8566 69.6217ZM62.3037 73.9353V86.9967H58.4632V73.9353H62.3037Z" fill="#4EDBD1"/>
<path d="M74.3288 73.9353H76.2334C76.2334 73.9353 88.0474 73.9353 91.0546 73.9353C94.1489 73.9353 94.2672 69.6217 91.0546 69.6217H78.882C73.375 69.6217 74.3288 65.2188 74.3288 65.2188H90.7853C99.3576 65.2188 99.3286 78.2787 90.876 78.2787H78.1373V86.996H74.328L74.3288 73.9353Z" fill="#4EDBD1"/>
<path d="M47.6235 49.4482C49.1658 49.4482 50.416 48.1984 50.416 46.6567C50.416 45.115 49.1658 43.8652 47.6235 43.8652C46.0813 43.8652 44.8311 45.115 44.8311 46.6567C44.8311 48.1984 46.0813 49.4482 47.6235 49.4482Z" fill="#4EDBD1"/>
<path d="M43.4863 53.8439C44.8741 53.8439 45.999 52.7193 45.999 51.3321C45.999 49.9449 44.8741 48.8203 43.4863 48.8203C42.0986 48.8203 40.9736 49.9449 40.9736 51.3321C40.9736 52.7193 42.0986 53.8439 43.4863 53.8439Z" fill="#4EDBD1"/>
<path d="M40.1371 58.8371C41.3708 58.8371 42.3709 57.8374 42.3709 56.6041C42.3709 55.3709 41.3708 54.3711 40.1371 54.3711C38.9034 54.3711 37.9033 55.3709 37.9033 56.6041C37.9033 57.8374 38.9034 58.8371 40.1371 58.8371Z" fill="#4EDBD1"/>
<path d="M37.6717 64.2952C38.7514 64.2952 39.6266 63.4202 39.6266 62.3409C39.6266 61.2617 38.7514 60.3867 37.6717 60.3867C36.592 60.3867 35.7168 61.2617 35.7168 62.3409C35.7168 63.4202 36.592 64.2952 37.6717 64.2952Z" fill="#4EDBD1"/>
<path d="M37.001 69.8324C37.7964 69.36 38.058 68.3326 37.5855 67.5375C37.1129 66.7424 36.0851 66.4808 35.2897 66.9532C34.4944 67.4256 34.2327 68.4531 34.7053 69.2482C35.1778 70.0433 36.2057 70.3048 37.001 69.8324Z" fill="#4EDBD1"/>
<path d="M35.5925 76.0083C36.3637 76.0083 36.9888 75.3834 36.9888 74.6125C36.9888 73.8417 36.3637 73.2168 35.5925 73.2168C34.8214 73.2168 34.1963 73.8417 34.1963 74.6125C34.1963 75.3834 34.8214 76.0083 35.5925 76.0083Z" fill="#4EDBD1"/>
<path d="M36.8012 81.6382C37.2451 81.2097 37.2577 80.5028 36.8293 80.0595C36.401 79.6161 35.6939 79.6041 35.25 80.0326C34.8061 80.4612 34.7935 81.168 35.2219 81.6114C35.6502 82.0547 36.3573 82.0668 36.8012 81.6382Z" fill="#4EDBD1"/>
<path d="M38.012 87.5235C37.679 87.8447 37.1492 87.8357 36.8279 87.5028C36.5066 87.1698 36.5156 86.6402 36.8487 86.319C37.1817 85.9978 37.7115 86.0069 38.0328 86.3398C38.3541 86.6718 38.3442 87.2023 38.012 87.5235Z" fill="#4EDBD1"/>
<path d="M39.7852 93.2654C40.0938 93.2654 40.3439 93.0154 40.3439 92.7069C40.3439 92.3985 40.0938 92.1484 39.7852 92.1484C39.4767 92.1484 39.2266 92.3985 39.2266 92.7069C39.2266 93.0154 39.4767 93.2654 39.7852 93.2654Z" fill="#4EDBD1"/>
<path d="M43.2228 98.2376C43.1117 98.345 42.9348 98.3414 42.8283 98.2304C42.7209 98.1194 42.7246 97.9426 42.8356 97.8361C42.9466 97.7288 43.1235 97.7324 43.23 97.8434C43.3365 97.9534 43.3338 98.1303 43.2228 98.2376Z" fill="#4EDBD1"/>
<path d="M103.752 50.8603C105.295 50.8603 106.545 49.6105 106.545 48.0688C106.545 46.5271 105.295 45.2773 103.752 45.2773C102.21 45.2773 100.96 46.5271 100.96 48.0688C100.96 49.6105 102.21 50.8603 103.752 50.8603Z" fill="#4EDBD1"/>
<path d="M100.295 46.0932C101.53 45.46 102.017 43.9461 101.384 42.7118C100.751 41.4774 99.2362 40.99 98.0014 41.6231C96.7666 42.2563 96.2791 43.7702 96.9124 45.0045C97.5458 46.2389 99.0602 46.7263 100.295 46.0932Z" fill="#4EDBD1"/>
<path d="M95.4754 42.035C94.5882 42.8921 93.1739 42.8668 92.3165 41.9799C91.4591 41.0931 91.4844 39.6793 92.3716 38.8221C93.2588 37.965 94.6731 37.9903 95.5305 38.8772C96.3879 39.7641 96.3626 41.1788 95.4754 42.035Z" fill="#4EDBD1"/>
<path d="M89.5838 39.2808C88.8076 40.0306 87.5702 40.0089 86.8202 39.233C86.0702 38.4571 86.0918 37.2201 86.868 36.4704C87.6442 35.7206 88.8816 35.7423 89.6316 36.5182C90.3816 37.2941 90.3609 38.5311 89.5838 39.2808Z" fill="#4EDBD1"/>
<path d="M83.358 37.4659C82.6928 38.1083 81.6314 38.0902 80.9888 37.4244C80.3462 36.7585 80.3642 35.6984 81.0303 35.056C81.6955 34.4136 82.7569 34.4317 83.3995 35.0975C84.0421 35.7634 84.0232 36.8235 83.358 37.4659Z" fill="#4EDBD1"/>
<path d="M75.9822 37.0102C76.7533 37.0102 77.3784 36.3853 77.3784 35.6145C77.3784 34.8436 76.7533 34.2188 75.9822 34.2188C75.2111 34.2188 74.5859 34.8436 74.5859 35.6145C74.5859 36.3853 75.2111 37.0102 75.9822 37.0102Z" fill="#4EDBD1"/>
<path d="M70.5228 36.7542C70.0788 37.1828 69.3721 37.1701 68.9434 36.7262C68.5146 36.2824 68.5273 35.5759 68.9713 35.1473C69.4154 34.7188 70.1221 34.7314 70.5508 35.1753C70.9786 35.6192 70.966 36.3257 70.5228 36.7542Z" fill="#4EDBD1"/>
<path d="M64.223 37.8692C63.8899 38.1904 63.3601 38.1814 63.0388 37.8485C62.7175 37.5155 62.7266 36.9859 63.0596 36.6647C63.3926 36.3435 63.9224 36.3526 64.2437 36.6855C64.5651 37.0175 64.556 37.5471 64.223 37.8692Z" fill="#4EDBD1"/>
<path d="M57.8204 40.0877C58.1289 40.0877 58.3791 39.8376 58.3791 39.5292C58.3791 39.2207 58.1289 38.9707 57.8204 38.9707C57.5119 38.9707 57.2617 39.2207 57.2617 39.5292C57.2617 39.8376 57.5119 40.0877 57.8204 40.0877Z" fill="#4EDBD1"/>
<path d="M52.631 42.8919C52.52 42.9993 52.3431 42.9957 52.2365 42.8847C52.1291 42.7737 52.1328 42.5969 52.2438 42.4904C52.3548 42.3831 52.5317 42.3867 52.6382 42.4976C52.7447 42.6077 52.7411 42.7846 52.631 42.8919Z" fill="#4EDBD1"/>
<path d="M47.0747 105.573C48.617 105.573 49.8672 104.323 49.8672 102.782C49.8672 101.24 48.617 99.9902 47.0747 99.9902C45.5325 99.9902 44.2822 101.24 44.2822 102.782C44.2822 104.323 45.5325 105.573 47.0747 105.573Z" fill="#4EDBD1"/>
<path d="M53.1523 108.835C54.2921 108.044 54.5742 106.479 53.7825 105.34C52.9908 104.2 51.4251 103.918 50.2854 104.71C49.1456 105.501 48.8635 107.066 49.6552 108.206C50.4469 109.345 52.0126 109.627 53.1523 108.835Z" fill="#4EDBD1"/>
<path d="M58.478 111.606C59.3654 110.75 59.39 109.336 58.533 108.449C57.6759 107.562 56.2618 107.537 55.3744 108.394C54.487 109.251 54.4624 110.664 55.3194 111.552C56.1765 112.439 57.5906 112.463 58.478 111.606Z" fill="#4EDBD1"/>
<path d="M63.6867 113.982C64.5735 113.366 64.793 112.148 64.177 111.262C63.5611 110.376 62.3429 110.156 61.4562 110.772C60.5694 111.388 60.3499 112.605 60.9659 113.492C61.5818 114.378 62.8 114.598 63.6867 113.982Z" fill="#4EDBD1"/>
<path d="M69.4717 115.221C70.2315 114.693 70.4196 113.65 69.8918 112.89C69.364 112.131 68.3202 111.943 67.5604 112.47C66.8005 112.998 66.6124 114.042 67.1402 114.801C67.668 115.561 68.7119 115.749 69.4717 115.221Z" fill="#4EDBD1"/>
<path d="M74.616 115.784C75.3871 115.784 76.0122 115.159 76.0122 114.388C76.0122 113.617 75.3871 112.992 74.616 112.992C73.8448 112.992 73.2197 113.617 73.2197 114.388C73.2197 115.159 73.8448 115.784 74.616 115.784Z" fill="#4EDBD1"/>
<path d="M81.5052 114.78C81.0612 115.208 80.3545 115.196 79.9258 114.752C79.4971 114.308 79.5097 113.601 79.9538 113.173C80.3978 112.744 81.1045 112.757 81.5332 113.201C81.961 113.645 81.9493 114.351 81.5052 114.78Z" fill="#4EDBD1"/>
<path d="M87.2855 113.229C86.9524 113.55 86.4226 113.541 86.1013 113.208C85.78 112.875 85.7891 112.345 86.1221 112.024C86.4551 111.703 86.9849 111.712 87.3062 112.045C87.6276 112.378 87.6185 112.907 87.2855 113.229Z" fill="#4EDBD1"/>
<path d="M92.7826 110.751C93.0045 110.537 93.0107 110.184 92.7963 109.962C92.582 109.74 92.2283 109.734 92.0064 109.948C91.7844 110.162 91.7783 110.516 91.9926 110.738C92.207 110.96 92.5606 110.966 92.7826 110.751Z" fill="#4EDBD1"/>
<path d="M97.8556 107.437C97.7446 107.544 97.5677 107.541 97.4612 107.43C97.3538 107.319 97.3574 107.142 97.4684 107.035C97.5794 106.928 97.7563 106.932 97.8628 107.043C97.9693 107.153 97.9666 107.329 97.8556 107.437Z" fill="#4EDBD1"/>
<path d="M102.377 106.126C103.92 106.126 105.17 104.876 105.17 103.334C105.17 101.793 103.92 100.543 102.377 100.543C100.835 100.543 99.585 101.793 99.585 103.334C99.585 104.876 100.835 106.126 102.377 106.126Z" fill="#4EDBD1"/>
<path d="M107.88 100.812C109.02 100.021 109.302 98.4554 108.51 97.3161C107.718 96.1768 106.153 95.8947 105.013 96.6862C103.873 97.4776 103.591 99.0428 104.383 100.182C105.174 101.321 106.74 101.603 107.88 100.812Z" fill="#4EDBD1"/>
<path d="M111.303 95.1982C112.191 94.3415 112.215 92.9279 111.358 92.0408C110.501 91.1537 109.087 91.1291 108.2 91.9858C107.312 92.8426 107.288 94.2562 108.145 95.1433C109.002 96.0304 110.416 96.055 111.303 95.1982Z" fill="#4EDBD1"/>
<path d="M113.568 89.4C112.792 90.1497 111.555 90.1281 110.805 89.3522C110.055 88.5762 110.076 87.3393 110.852 86.5895C111.629 85.8398 112.866 85.8614 113.616 86.6373C114.367 87.4133 114.345 88.6502 113.568 89.4Z" fill="#4EDBD1"/>
<path d="M114.934 83.2784C114.269 83.9208 113.208 83.9027 112.565 83.2369C111.922 82.5719 111.94 81.5109 112.606 80.8685C113.272 80.2261 114.333 80.2442 114.976 80.91C115.618 81.575 115.599 82.636 114.934 83.2784Z" fill="#4EDBD1"/>
<path d="M114.394 77.3774C115.165 77.3774 115.791 76.7525 115.791 75.9817C115.791 75.2108 115.165 74.5859 114.394 74.5859C113.623 74.5859 112.998 75.2108 112.998 75.9817C112.998 76.7525 113.623 77.3774 114.394 77.3774Z" fill="#4EDBD1"/>
<path d="M114.848 70.6702C114.404 71.0988 113.697 71.0862 113.269 70.6423C112.84 70.1984 112.852 69.4919 113.297 69.0634C113.741 68.6348 114.447 68.6474 114.876 69.0913C115.304 69.5352 115.292 70.2426 114.848 70.6702Z" fill="#4EDBD1"/>
<path d="M113.39 64.4786C113.057 64.7998 112.527 64.7908 112.206 64.4578C111.885 64.1249 111.894 63.5953 112.227 63.2741C112.56 62.9529 113.089 62.9619 113.411 63.2949C113.732 63.6269 113.723 64.1565 113.39 64.4786Z" fill="#4EDBD1"/>
<path d="M111.016 58.5535C110.794 58.7673 110.44 58.7619 110.226 58.5399C110.012 58.318 110.018 57.9643 110.24 57.7505C110.462 57.5366 110.815 57.5421 111.029 57.764C111.244 57.986 111.238 58.3396 111.016 58.5535Z" fill="#4EDBD1"/>
<path d="M107.776 53.0423C107.665 53.1497 107.489 53.1461 107.382 53.0351C107.275 52.9241 107.278 52.7473 107.389 52.6408C107.5 52.5335 107.677 52.5371 107.784 52.648C107.891 52.7581 107.887 52.9349 107.776 53.0423Z" fill="#4EDBD1"/>
<path d="M55.3158 30.0176C57.372 30.0176 59.0388 28.3513 59.0388 26.2959C59.0388 24.2405 57.372 22.5742 55.3158 22.5742C53.2596 22.5742 51.5928 24.2405 51.5928 26.2959C51.5928 28.3513 53.2596 30.0176 55.3158 30.0176Z" fill="#4EDBD1"/>
<path d="M47.8619 33.3601C49.7127 33.3601 51.2131 31.8603 51.2131 30.0101C51.2131 28.16 49.7127 26.6602 47.8619 26.6602C46.0111 26.6602 44.5107 28.16 44.5107 30.0101C44.5107 31.8603 46.0111 33.3601 47.8619 33.3601Z" fill="#4EDBD1"/>
<path d="M41.0897 37.8297C42.7347 37.8297 44.0681 36.4967 44.0681 34.8524C44.0681 33.208 42.7347 31.875 41.0897 31.875C39.4448 31.875 38.1113 33.208 38.1113 34.8524C38.1113 36.4967 39.4448 37.8297 41.0897 37.8297Z" fill="#4EDBD1"/>
<path d="M37.0179 42.556C38.0355 41.5388 38.0352 39.8893 37.0173 38.8717C35.9994 37.8542 34.3493 37.8539 33.3317 38.8711C32.3142 39.8883 32.3144 41.5378 33.3324 42.5553C34.3503 43.5729 36.0004 43.5732 37.0179 42.556Z" fill="#4EDBD1"/>
<path d="M30.6039 49.6382C31.8233 49.4512 32.6602 48.3115 32.4732 47.0926C32.2862 45.8736 31.146 45.037 29.9266 45.224C28.7073 45.4109 27.8704 46.5507 28.0574 47.7696C28.2444 48.9886 29.3845 49.8252 30.6039 49.6382Z" fill="#4EDBD1"/>
<path d="M26.4743 56.7089C27.5026 56.7089 28.3362 55.8756 28.3362 54.8476C28.3362 53.8197 27.5026 52.9863 26.4743 52.9863C25.4459 52.9863 24.6123 53.8197 24.6123 54.8476C24.6123 55.8756 25.4459 56.7089 26.4743 56.7089Z" fill="#4EDBD1"/>
<path d="M24.4535 64.1424C25.2161 63.8344 25.5846 62.9668 25.2765 62.2044C24.9684 61.4421 24.1004 61.0738 23.3378 61.3818C22.5752 61.6898 22.2068 62.5574 22.5149 63.3198C22.823 64.0821 23.6909 64.4504 24.4535 64.1424Z" fill="#4EDBD1"/>
<path d="M23.0132 72.0194C22.441 72.2504 21.7902 71.9743 21.5592 71.4023C21.3281 70.8303 21.6043 70.1798 22.1765 69.9488C22.7487 69.7178 23.3995 69.9939 23.6305 70.5659C23.8616 71.137 23.5854 71.7884 23.0132 72.0194Z" fill="#4EDBD1"/>
<path d="M22.6157 80.0512C23.0269 80.0512 23.3603 79.7179 23.3603 79.3068C23.3603 78.8957 23.0269 78.5625 22.6157 78.5625C22.2045 78.5625 21.8711 78.8957 21.8711 79.3068C21.8711 79.7179 22.2045 80.0512 22.6157 80.0512Z" fill="#4EDBD1"/>
<path d="M24.0986 87.8657C23.9082 87.9424 23.6907 87.8503 23.614 87.66C23.5372 87.4696 23.6293 87.2522 23.8197 87.1755C24.0102 87.0988 24.2277 87.1908 24.3044 87.3812C24.382 87.5725 24.29 87.789 24.0986 87.8657Z" fill="#4EDBD1"/>
<path d="M124 59.7852C126.057 59.7852 127.723 58.1189 127.723 56.0635C127.723 54.0081 126.057 52.3418 124 52.3418C121.944 52.3418 120.277 54.0081 120.277 56.0635C120.277 58.1189 121.944 59.7852 124 59.7852Z" fill="#4EDBD1"/>
<path d="M120.72 51.8839C122.562 51.7177 123.922 50.0894 123.755 48.2472C123.589 46.4049 121.96 45.0463 120.117 45.2126C118.274 45.3789 116.915 47.0071 117.081 48.8493C117.248 50.6916 118.877 52.0502 120.72 51.8839Z" fill="#4EDBD1"/>
<path d="M116.784 44.4678C115.258 45.084 113.523 44.3469 112.906 42.8221C112.29 41.2974 113.027 39.5624 114.552 38.9462C116.076 38.3299 117.812 39.0671 118.429 40.5909C119.045 42.1166 118.309 43.8525 116.784 44.4678Z" fill="#4EDBD1"/>
<path d="M110.874 38.1252C109.539 38.6638 108.02 38.0196 107.481 36.6852C106.942 35.3508 107.587 33.8324 108.922 33.2937C110.257 32.7551 111.776 33.3993 112.314 34.7337C112.853 36.0672 112.209 37.5856 110.874 38.1252Z" fill="#4EDBD1"/>
<path d="M104.087 32.7712C102.943 33.2332 101.641 32.681 101.179 31.537C100.717 30.3939 101.269 29.0919 102.414 28.63C103.557 28.1681 104.859 28.7202 105.322 29.8642C105.784 31.0083 105.23 32.3093 104.087 32.7712Z" fill="#4EDBD1"/>
<path d="M95.8932 28.6581C96.9215 28.6581 97.7552 27.8248 97.7552 26.7968C97.7552 25.7689 96.9215 24.9355 95.8932 24.9355C94.8649 24.9355 94.0312 25.7689 94.0312 26.7968C94.0312 27.8248 94.8649 28.6581 95.8932 28.6581Z" fill="#4EDBD1"/>
<path d="M88.5727 25.4808C87.8101 25.7884 86.9418 25.4203 86.6341 24.6579C86.3263 23.8956 86.6945 23.0276 87.4572 22.72C88.2198 22.4123 89.0881 22.7804 89.3959 23.5428C89.7045 24.3052 89.3354 25.1722 88.5727 25.4808Z" fill="#4EDBD1"/>
<path d="M80.229 23.7128C79.6568 23.9437 79.006 23.6676 78.775 23.0956C78.5439 22.5236 78.8201 21.8731 79.3923 21.6421C79.9645 21.4112 80.6153 21.6873 80.8463 22.2593C81.0765 22.8313 80.8003 23.4818 80.229 23.7128Z" fill="#4EDBD1"/>
<path d="M71.4848 23.3168C71.8961 23.3168 72.2294 22.9835 72.2294 22.5725C72.2294 22.1614 71.8961 21.8281 71.4848 21.8281C71.0736 21.8281 70.7402 22.1614 70.7402 22.5725C70.7402 22.9835 71.0736 23.3168 71.4848 23.3168Z" fill="#4EDBD1"/>
<path d="M63.3877 24.1372C63.1973 24.2139 62.9797 24.1218 62.903 23.9315C62.8263 23.7411 62.9184 23.5236 63.1088 23.447C63.2992 23.3703 63.5168 23.4623 63.5935 23.6527C63.6711 23.8439 63.579 24.0605 63.3877 24.1372Z" fill="#4EDBD1"/>
<path d="M26.5961 99.125C28.6522 99.125 30.3191 97.4588 30.3191 95.4033C30.3191 93.3479 28.6522 91.6816 26.5961 91.6816C24.5399 91.6816 22.873 93.3479 22.873 95.4033C22.873 97.4588 24.5399 99.125 26.5961 99.125Z" fill="#4EDBD1"/>
<path d="M31.0819 105.923C32.8868 105.514 34.018 103.72 33.6086 101.916C33.1991 100.112 31.404 98.982 29.5991 99.3915C27.7942 99.8009 26.663 101.595 27.0725 103.399C27.4819 105.203 29.277 106.333 31.0819 105.923Z" fill="#4EDBD1"/>
<path d="M36.2762 112.015C37.8014 111.399 38.5383 109.664 37.9221 108.139C37.3059 106.615 35.57 105.878 34.0448 106.494C32.5196 107.11 31.7827 108.845 32.3989 110.37C33.0151 111.895 34.751 112.631 36.2762 112.015Z" fill="#4EDBD1"/>
<path d="M41.5361 117.543C42.9395 117.225 43.819 115.829 43.5005 114.426C43.182 113.023 41.7862 112.144 40.3828 112.463C38.9795 112.781 38.1 114.176 38.4184 115.579C38.7369 116.982 40.1327 117.861 41.5361 117.543Z" fill="#4EDBD1"/>
<path d="M48.0665 121.967C49.2696 121.694 50.0236 120.497 49.7506 119.295C49.4776 118.092 48.2809 117.338 47.0778 117.611C45.8747 117.884 45.1207 119.08 45.3938 120.283C45.6668 121.486 46.8634 122.24 48.0665 121.967Z" fill="#4EDBD1"/>
<path d="M54.8454 125.363C55.8737 125.363 56.7073 124.53 56.7073 123.502C56.7073 122.474 55.8737 121.641 54.8454 121.641C53.817 121.641 52.9834 122.474 52.9834 123.502C52.9834 124.53 53.817 125.363 54.8454 125.363Z" fill="#4EDBD1"/>
<path d="M63.1655 127.424C62.4029 127.732 61.5346 127.364 61.2268 126.601C60.9191 125.839 61.2873 124.971 62.05 124.663C62.8126 124.356 63.6809 124.724 63.9886 125.486C64.2964 126.249 63.9282 127.116 63.1655 127.424Z" fill="#4EDBD1"/>
<path d="M71.0864 128.394C70.5142 128.625 69.8635 128.349 69.6324 127.777C69.4014 127.205 69.6775 126.555 70.2498 126.324C70.822 126.093 71.4727 126.369 71.7038 126.941C71.9348 127.513 71.6586 128.163 71.0864 128.394Z" fill="#4EDBD1"/>
<path d="M79.1154 128.092C79.4967 127.938 79.6809 127.504 79.5269 127.123C79.3729 126.742 78.9389 126.557 78.5576 126.711C78.1763 126.865 77.9921 127.299 78.1461 127.68C78.3002 128.062 78.7341 128.246 79.1154 128.092Z" fill="#4EDBD1"/>
<path d="M87.0478 126.514C86.8574 126.591 86.6399 126.499 86.5632 126.308C86.4865 126.118 86.5785 125.901 86.769 125.824C86.9594 125.747 87.1769 125.839 87.2536 126.03C87.3303 126.22 87.2383 126.437 87.0478 126.514Z" fill="#4EDBD1"/>
<path d="M94.684 127.426C96.7401 127.426 98.407 125.76 98.407 123.704C98.407 121.649 96.7401 119.982 94.684 119.982C92.6278 119.982 90.9609 121.649 90.9609 123.704C90.9609 125.76 92.6278 127.426 94.684 127.426Z" fill="#4EDBD1"/>
<path d="M102.746 123.33C104.55 122.92 105.681 121.126 105.271 119.322C104.861 117.517 103.067 116.387 101.262 116.796C99.4579 117.205 98.3271 119 98.7367 120.804C99.1463 122.608 100.941 123.739 102.746 123.33Z" fill="#4EDBD1"/>
<path d="M109.781 118.111C111.306 117.495 112.043 115.76 111.427 114.235C110.811 112.71 109.075 111.974 107.55 112.59C106.024 113.206 105.288 114.941 105.904 116.466C106.52 117.99 108.256 118.727 109.781 118.111Z" fill="#4EDBD1"/>
<path d="M115.483 112.063C114.149 112.601 112.63 111.957 112.091 110.623C111.552 109.288 112.196 107.77 113.531 107.231C114.866 106.693 116.385 107.337 116.924 108.671C117.463 110.005 116.817 111.523 115.483 112.063Z" fill="#4EDBD1"/>
<path d="M120.229 105.174C119.086 105.636 117.784 105.083 117.321 103.939C116.859 102.796 117.412 101.494 118.556 101.032C119.7 100.57 121.002 101.123 121.464 102.267C121.926 103.411 121.374 104.712 120.229 105.174Z" fill="#4EDBD1"/>
<path d="M123.206 97.748C124.234 97.748 125.068 96.9147 125.068 95.8867C125.068 94.8587 124.234 94.0254 123.206 94.0254C122.177 94.0254 121.344 94.8587 121.344 95.8867C121.344 96.9147 122.177 97.748 123.206 97.748Z" fill="#4EDBD1"/>
<path d="M126.421 89.5491C125.659 89.8568 124.79 89.4887 124.483 88.7263C124.175 87.9639 124.543 87.096 125.306 86.7883C126.068 86.4807 126.937 86.8488 127.244 87.6111C127.552 88.3735 127.184 89.2415 126.421 89.5491Z" fill="#4EDBD1"/>
<path d="M127.713 81.1639C127.141 81.3949 126.49 81.1188 126.259 80.5468C126.028 79.9748 126.304 79.3243 126.877 79.0933C127.449 78.8623 128.1 79.1384 128.331 79.7104C128.561 80.2825 128.285 80.933 127.713 81.1639Z" fill="#4EDBD1"/>
<path d="M127.738 72.6537C127.357 72.808 126.923 72.6239 126.768 72.2423C126.614 71.8616 126.798 71.4276 127.18 71.2733C127.561 71.119 127.995 71.3031 128.149 71.6847C128.303 72.0655 128.119 72.4994 127.738 72.6537Z" fill="#4EDBD1"/>
<path d="M126.489 64.2231C126.299 64.2998 126.081 64.2078 126.005 64.0174C125.928 63.827 126.02 63.6096 126.21 63.5329C126.401 63.4562 126.618 63.5482 126.695 63.7386C126.772 63.929 126.68 64.1455 126.489 64.2231Z" fill="#4EDBD1"/>
<path d="M74.9992 9.92451C77.7407 9.92451 79.9632 7.70284 79.9632 4.96226C79.9632 2.22168 77.7407 0 74.9992 0C72.2576 0 70.0352 2.22168 70.0352 4.96226C70.0352 7.70284 72.2576 9.92451 74.9992 9.92451Z" fill="#4EDBD1"/>
<path d="M63.9305 10.2973C66.3979 10.2973 68.3981 8.29779 68.3981 5.83127C68.3981 3.36474 66.3979 1.36523 63.9305 1.36523C61.4631 1.36523 59.4629 3.36474 59.4629 5.83127C59.4629 8.29779 61.4631 10.2973 63.9305 10.2973Z" fill="#4EDBD1"/>
<path d="M53.1372 12.4084C55.3305 12.4084 57.1084 10.631 57.1084 8.43856C57.1084 6.24609 55.3305 4.46875 53.1372 4.46875C50.944 4.46875 49.166 6.24609 49.166 8.43856C49.166 10.631 50.944 12.4084 53.1372 12.4084Z" fill="#4EDBD1"/>
<path d="M44.2284 15.9388C46.0014 15.2046 46.8434 13.1726 46.109 11.4002C45.3745 9.62776 43.3418 8.7861 41.5688 9.52027C39.7957 10.2544 38.9538 12.2864 39.6882 14.0588C40.4226 15.8313 42.4554 16.6729 44.2284 15.9388Z" fill="#4EDBD1"/>
<path d="M36.3674 19.2755C36.7454 17.6752 35.7541 16.0716 34.1532 15.6938C32.5524 15.3159 30.9482 16.3068 30.5702 17.9071C30.1922 19.5074 31.1835 21.111 32.7843 21.4889C34.3852 21.8668 35.9894 20.8758 36.3674 19.2755Z" fill="#4EDBD1"/>
<path d="M25.0787 28.3392C26.4495 28.3392 27.5607 27.2284 27.5607 25.8581C27.5607 24.4878 26.4495 23.377 25.0787 23.377C23.7079 23.377 22.5967 24.4878 22.5967 25.8581C22.5967 27.2284 23.7079 28.3392 25.0787 28.3392Z" fill="#4EDBD1"/>
<path d="M17.9368 36.3389C19.0334 36.3389 19.9224 35.4503 19.9224 34.354C19.9224 33.2578 19.0334 32.3691 17.9368 32.3691C16.8402 32.3691 15.9512 33.2578 15.9512 34.354C15.9512 35.4503 16.8402 36.3389 17.9368 36.3389Z" fill="#4EDBD1"/>
<path d="M12.2207 45.3582C11.3984 45.3582 10.7314 44.6915 10.7314 43.8695C10.7314 43.0476 11.3984 42.3809 12.2207 42.3809C13.0429 42.3809 13.7099 43.0476 13.7099 43.8695C13.7099 44.6915 13.0429 45.3582 12.2207 45.3582Z" fill="#4EDBD1"/>
<path d="M8.08655 55.1626C8.63486 55.1626 9.07936 54.7183 9.07936 54.1702C9.07936 53.6221 8.63486 53.1777 8.08655 53.1777C7.53824 53.1777 7.09375 53.6221 7.09375 54.1702C7.09375 54.7183 7.53824 55.1626 8.08655 55.1626Z" fill="#4EDBD1"/>
<path d="M5.64582 65.4925C5.37144 65.4925 5.14941 65.2705 5.14941 64.9962C5.14941 64.722 5.37144 64.5 5.64582 64.5C5.92019 64.5 6.14222 64.722 6.14222 64.9962C6.14222 65.2705 5.92019 65.4925 5.64582 65.4925Z" fill="#4EDBD1"/>
<path d="M145.036 81.0202C147.778 81.0202 150 78.7985 150 76.058C150 73.3174 147.778 71.0957 145.036 71.0957C142.295 71.0957 140.072 73.3174 140.072 76.058C140.072 78.7985 142.295 81.0202 145.036 81.0202Z" fill="#4EDBD1"/>
<path d="M148.63 66.277C149.345 63.9163 148.01 61.4231 145.649 60.7083C143.287 59.9935 140.793 61.3277 140.078 63.6885C139.363 66.0492 140.698 68.5423 143.059 69.2571C145.421 69.9719 147.915 68.6377 148.63 66.277Z" fill="#4EDBD1"/>
<path d="M141.907 58.1271C139.714 58.1271 137.936 56.3497 137.936 54.1573C137.936 51.9649 139.714 50.1875 141.907 50.1875C144.1 50.1875 145.878 51.9649 145.878 54.1573C145.878 56.3497 144.1 58.1271 141.907 58.1271Z" fill="#4EDBD1"/>
<path d="M137.771 47.33C135.852 47.33 134.296 45.7745 134.296 43.8564C134.296 41.9383 135.852 40.3828 137.771 40.3828C139.69 40.3828 141.246 41.9383 141.246 43.8564C141.246 45.7745 139.69 47.33 137.771 47.33Z" fill="#4EDBD1"/>
<path d="M132.055 37.3219C130.409 37.3219 129.076 35.9893 129.076 34.3445C129.076 32.6998 130.409 31.3672 132.055 31.3672C133.7 31.3672 135.033 32.6998 135.033 34.3445C135.033 35.9893 133.699 37.3219 132.055 37.3219Z" fill="#4EDBD1"/>
<path d="M124.91 28.3294C126.281 28.3294 127.392 27.2186 127.392 25.8483C127.392 24.478 126.281 23.3672 124.91 23.3672C123.539 23.3672 122.428 24.478 122.428 25.8483C122.428 27.2186 123.539 28.3294 124.91 28.3294Z" fill="#4EDBD1"/>
<path d="M116.519 20.5636C115.422 20.5636 114.533 19.6749 114.533 18.5787C114.533 17.4824 115.422 16.5938 116.519 16.5938C117.615 16.5938 118.504 17.4824 118.504 18.5787C118.504 19.6749 117.615 20.5636 116.519 20.5636Z" fill="#4EDBD1"/>
<path d="M107.087 14.2117C106.265 14.2117 105.598 13.545 105.598 12.7231C105.598 11.9011 106.265 11.2344 107.087 11.2344C107.909 11.2344 108.576 11.9011 108.576 12.7231C108.576 13.5459 107.909 14.2117 107.087 14.2117Z" fill="#4EDBD1"/>
<path d="M96.8463 9.42631C97.3946 9.42631 97.8391 8.98197 97.8391 8.43386C97.8391 7.88574 97.3946 7.44141 96.8463 7.44141C96.298 7.44141 95.8535 7.88574 95.8535 8.43386C95.8535 8.98197 96.298 9.42631 96.8463 9.42631Z" fill="#4EDBD1"/>
<path d="M86.056 6.32644C85.7816 6.32644 85.5596 6.10449 85.5596 5.83021C85.5596 5.55593 85.7816 5.33398 86.056 5.33398C86.3303 5.33398 86.5524 5.55593 86.5524 5.83021C86.5524 6.10449 86.3303 6.32644 86.056 6.32644Z" fill="#4EDBD1"/>
<path d="M4.96402 81.0202C7.70557 81.0202 9.92804 78.7985 9.92804 76.058C9.92804 73.3174 7.70557 71.0957 4.96402 71.0957C2.22247 71.0957 0 73.3174 0 76.058C0 78.7985 2.22247 81.0202 4.96402 81.0202Z" fill="#4EDBD1"/>
<path d="M10.3736 87.6162C10.7689 85.1815 9.11487 82.8875 6.6793 82.4924C4.24374 82.0972 1.94888 83.7506 1.5536 86.1853C1.15833 88.62 2.81231 90.9141 5.24788 91.3092C7.68345 91.7043 9.9783 90.051 10.3736 87.6162Z" fill="#4EDBD1"/>
<path d="M8.63332 101.426C10.8266 101.426 12.6045 99.6486 12.6045 97.4561C12.6045 95.2637 10.8266 93.4863 8.63332 93.4863C6.44008 93.4863 4.66211 95.2637 4.66211 97.4561C4.66211 99.6486 6.44008 101.426 8.63332 101.426Z" fill="#4EDBD1"/>
<path d="M16.3502 108.022C16.6577 106.128 15.3712 104.344 13.4769 104.037C11.5826 103.729 9.7977 105.015 9.49026 106.909C9.18282 108.803 10.4693 110.587 12.3636 110.894C14.2579 111.202 16.0428 109.916 16.3502 108.022Z" fill="#4EDBD1"/>
<path d="M21.6472 117.161C21.9107 115.538 20.808 114.009 19.1843 113.746C17.5606 113.482 16.0307 114.584 15.7672 116.208C15.5037 117.831 16.6063 119.36 18.23 119.623C19.8537 119.887 21.3836 118.785 21.6472 117.161Z" fill="#4EDBD1"/>
<path d="M25.8482 127.382C27.219 127.382 28.3302 126.271 28.3302 124.901C28.3302 123.531 27.219 122.42 25.8482 122.42C24.4774 122.42 23.3662 123.531 23.3662 124.901C23.3662 126.271 24.4774 127.382 25.8482 127.382Z" fill="#4EDBD1"/>
<path d="M34.1741 133.905C33.0775 133.905 32.1885 133.017 32.1885 131.92C32.1885 130.824 33.0775 129.936 34.1741 129.936C35.2707 129.936 36.1597 130.824 36.1597 131.92C36.1597 133.017 35.2707 133.905 34.1741 133.905Z" fill="#4EDBD1"/>
<path d="M43.4824 139.055C42.6601 139.055 41.9932 138.389 41.9932 137.567C41.9932 136.745 42.6601 136.078 43.4824 136.078C44.3046 136.078 44.9716 136.745 44.9716 137.567C44.9716 138.389 44.3055 139.055 43.4824 139.055Z" fill="#4EDBD1"/>
<path d="M53.5582 142.69C54.1065 142.69 54.551 142.246 54.551 141.698C54.551 141.149 54.1065 140.705 53.5582 140.705C53.0099 140.705 52.5654 141.149 52.5654 141.698C52.5654 142.246 53.0099 142.69 53.5582 142.69Z" fill="#4EDBD1"/>
<path d="M64.1546 144.699C63.8802 144.699 63.6582 144.478 63.6582 144.203C63.6582 143.929 63.8802 143.707 64.1546 143.707C64.429 143.707 64.651 143.929 64.651 144.203C64.651 144.477 64.4281 144.699 64.1546 144.699Z" fill="#4EDBD1"/>
<path d="M75.0002 149.997C77.7417 149.997 79.9642 147.775 79.9642 145.035C79.9642 142.294 77.7417 140.072 75.0002 140.072C72.2586 140.072 70.0361 142.294 70.0361 145.035C70.0361 147.775 72.2586 149.997 75.0002 149.997Z" fill="#4EDBD1"/>
<path d="M90.272 144.917C90.6673 142.482 89.0133 140.188 86.5777 139.793C84.1422 139.398 81.8473 141.051 81.452 143.486C81.0568 145.921 82.7107 148.215 85.1463 148.61C87.5819 149.005 89.8767 147.352 90.272 144.917Z" fill="#4EDBD1"/>
<path d="M96.4575 145.658C98.6508 145.658 100.429 143.881 100.429 141.689C100.429 139.496 98.6508 137.719 96.4575 137.719C94.2643 137.719 92.4863 139.496 92.4863 141.689C92.4863 143.881 94.2643 145.658 96.4575 145.658Z" fill="#4EDBD1"/>
<path d="M106.53 141.033C104.612 141.033 103.056 139.478 103.056 137.56C103.056 135.641 104.612 134.086 106.53 134.086C108.449 134.086 110.005 135.641 110.005 137.56C110.005 139.478 108.449 141.033 106.53 141.033Z" fill="#4EDBD1"/>
<path d="M115.838 134.884C114.192 134.884 112.859 133.552 112.859 131.907C112.859 130.262 114.192 128.93 115.838 128.93C117.483 128.93 118.816 130.262 118.816 131.907C118.816 133.552 117.483 134.884 115.838 134.884Z" fill="#4EDBD1"/>
<path d="M124.159 127.37C125.53 127.37 126.641 126.26 126.641 124.889C126.641 123.519 125.53 122.408 124.159 122.408C122.788 122.408 121.677 123.519 121.677 124.889C121.677 126.26 122.788 127.37 124.159 127.37Z" fill="#4EDBD1"/>
<path d="M131.302 118.659C130.205 118.659 129.316 117.771 129.316 116.674C129.316 115.578 130.205 114.689 131.302 114.689C132.399 114.689 133.288 115.578 133.288 116.674C133.288 117.771 132.399 118.659 131.302 118.659Z" fill="#4EDBD1"/>
<path d="M137.087 108.938C136.265 108.938 135.598 108.272 135.598 107.45C135.598 106.628 136.265 105.961 137.087 105.961C137.909 105.961 138.576 106.628 138.576 107.45C138.576 108.272 137.909 108.938 137.087 108.938Z" fill="#4EDBD1"/>
<path d="M141.37 98.4341C140.821 98.4341 140.377 97.9902 140.377 97.4417C140.377 96.8931 140.821 96.4492 141.37 96.4492C141.918 96.4492 142.363 96.8931 142.363 97.4417C142.363 97.9893 141.919 98.4341 141.37 98.4341Z" fill="#4EDBD1"/>
<path d="M144.037 87.385C143.763 87.385 143.541 87.1631 143.541 86.8888C143.541 86.6145 143.763 86.3926 144.037 86.3926C144.312 86.3926 144.534 86.6145 144.534 86.8888C144.534 87.1631 144.312 87.385 144.037 87.385Z" fill="#4EDBD1"/>
</svg>
